<?xml version="1.0" encoding="UTF-8" standalone="no"?>
<!-- Copyright 2000-2023 JetBrains s.r.o. and contributors. Use of this source code is governed by the Apache 2.0 license. -->

<svg
   width="16"
   height="16"
   viewBox="0 0 16 16"
   fill="none"
   version="1.1"
   id="svg3"
   sodipodi:docname="astra_dark.svg"
   inkscape:version="1.4.2 (ebf0e940, 2025-05-08)"
   xmlns:inkscape="http://www.inkscape.org/namespaces/inkscape"
   xmlns:sodipodi="http://sodipodi.sourceforge.net/DTD/sodipodi-0.dtd"
   xmlns="http://www.w3.org/2000/svg"
   xmlns:svg="http://www.w3.org/2000/svg">
  <defs
     id="defs3" />
  <sodipodi:namedview
     id="namedview3"
     pagecolor="#ffffff"
     bordercolor="#000000"
     borderopacity="0.25"
     inkscape:showpageshadow="2"
     inkscape:pageopacity="0.0"
     inkscape:pagecheckerboard="0"
     inkscape:deskcolor="#d1d1d1"
     inkscape:zoom="6.1380831"
     inkscape:cx="-19.468619"
     inkscape:cy="9.3677454"
     inkscape:window-width="1568"
     inkscape:window-height="924"
     inkscape:window-x="277"
     inkscape:window-y="45"
     inkscape:window-maximized="0"
     inkscape:current-layer="svg3" />
  <path
     d="M 2.63333,2 C 1.73127,2 1,2.83574 1,3.86667 V 12.1333 C 1,13.1643 1.73127,14 2.63333,14 h 5.8714466 l -0.00383,-1.494242 C 8.490721,8.516317 8.4809134,8.5246757 12.5,8.5195313 l 2.5,-0.0032 V 6 C 15,4.89543 14.1046,4 13,4 H 8.46667 L 6.84336,2.30775 C 6.65477,2.11115 6.39413,2 6.1217,2 Z"
     fill="#ebecf0"
     id="path2"
     sodipodi:nodetypes="sssscsscssccss"
     style="fill:#43454a;fill-opacity:1" />
  <path
     d="M 6.1217,3 H 2.63333 C 2.40481,3 2,3.25841 2,3.86667 V 12.1333 C 2,12.7416 2.40481,13 2.63333,13 h 5.8714466 l 0,1 H 2.63333 C 1.73127,14 1,13.1643 1,12.1333 V 3.86667 C 1,2.83574 1.73127,2 2.63333,2 H 6.1217 C 6.39413,2 6.65477,2.11115 6.84336,2.30775 L 8.46667,4 H 13 c 1.1046,0 2,0.89543 2,2 l 0.01721,2.5163304 H 13.999999 V 6 C 14,5.44771 13.5523,5 13,5 H 8.04022 Z"
     fill="#6c707e"
     id="path3"
     sodipodi:nodetypes="cssssccsssssccssccsscc"
     style="fill:#ced0d6;fill-opacity:1" />
  <path
     d="m 11.422365,9.344777 c 0,-0.181082 -0.145682,-0.326764 -0.326764,-0.326764 -0.181082,0 -0.326763,0.145682 -0.326763,0.326764 v 0.544606 c -0.480614,0 -0.8713703,0.390755 -0.8713703,0.871369 H 9.3528616 c -0.1810814,0 -0.3267634,0.145682 -0.3267634,0.326763 0,0.181082 0.145682,0.326764 0.3267634,0.326764 h 0.5446061 v 0.762447 H 9.3528616 c -0.1810814,0 -0.3267634,0.145682 -0.3267634,0.326764 0,0.181082 0.145682,0.326764 0.3267634,0.326764 h 0.5446061 v 0.762448 H 9.3528616 c -0.1810814,0 -0.3267634,0.145682 -0.3267634,0.326763 0,0.181081 0.145682,0.326763 0.3267634,0.326763 h 0.5446061 c 0,0.480615 0.3907563,0.87137 0.8713703,0.87137 v 0.544606 c 0,0.181081 0.145682,0.326763 0.326763,0.326763 0.181082,0 0.326764,-0.145682 0.326764,-0.326763 v -0.544606 h 0.762447 v 0.544606 c 0,0.181081 0.145682,0.326763 0.326764,0.326763 0.181082,0 0.326764,-0.145682 0.326764,-0.326763 v -0.544606 h 0.762448 v 0.544606 c 0,0.181081 0.145682,0.326763 0.326763,0.326763 0.181081,0 0.326763,-0.145682 0.326763,-0.326763 v -0.544606 c 0.480615,0 0.87137,-0.390755 0.87137,-0.87137 h 0.544606 c 0.181081,0 0.326763,-0.145682 0.326763,-0.326763 0,-0.181081 -0.145682,-0.326763 -0.326763,-0.326763 h -0.544607 v -0.762448 h 0.544606 c 0.181082,0 0.326763,-0.145682 0.326763,-0.326764 0,-0.181082 -0.145682,-0.326764 -0.326763,-0.326764 h -0.544606 v -0.762447 h 0.544606 c 0.181082,0 0.326763,-0.145682 0.326763,-0.326764 0,-0.181081 -0.145682,-0.326763 -0.326763,-0.326763 h -0.544606 c 0,-0.480614 -0.390755,-0.871369 -0.87137,-0.871369 V 9.344777 c 0,-0.181082 -0.145682,-0.326764 -0.326763,-0.326764 -0.181081,0 -0.326763,0.145682 -0.326763,0.326764 V 9.889383 H 12.83834 V 9.344777 c 0,-0.181082 -0.145683,-0.326764 -0.326765,-0.326764 -0.181082,0 -0.326764,0.145682 -0.326764,0.326764 v 0.544606 h -0.762446 z m -0.217842,1.415975 h 2.614107 c 0.240988,0 0.435684,0.194697 0.435684,0.435685 v 2.614107 c 0,0.240988 -0.194696,0.435684 -0.435684,0.435684 h -2.614107 c -0.240988,0 -0.435685,-0.194696 -0.435685,-0.435684 v -2.614107 c 0,-0.240988 0.194697,-0.435685 0.435685,-0.435685 z m 0.217841,0.653527 v 2.178423 h 2.178423 v -2.178423 z"
     id="path1-2"
     style="fill:#3574f0;fill-opacity:1;stroke-width:0.0136151" />
</svg>
