<?xml version="1.0" encoding="UTF-8" standalone="no"?>
<!-- Copyright 2000-2022 JetBrains s.r.o. and contributors. Use of this source code is governed by the Apache 2.0 license. -->

<svg
   width="16"
   height="16"
   viewBox="0 0 16 16"
   fill="none"
   version="1.1"
   id="svg2"
   sodipodi:docname="kotlinModule.svg"
   inkscape:version="1.4.2 (ebf0e940, 2025-05-08)"
   xmlns:inkscape="http://www.inkscape.org/namespaces/inkscape"
   xmlns:sodipodi="http://sodipodi.sourceforge.net/DTD/sodipodi-0.dtd"
   xmlns="http://www.w3.org/2000/svg"
   xmlns:svg="http://www.w3.org/2000/svg">
  <defs
     id="defs2" />
  <sodipodi:namedview
     id="namedview2"
     pagecolor="#ffffff"
     bordercolor="#000000"
     borderopacity="0.25"
     inkscape:showpageshadow="2"
     inkscape:pageopacity="0.0"
     inkscape:pagecheckerboard="0"
     inkscape:deskcolor="#d1d1d1"
     inkscape:zoom="23.208968"
     inkscape:cx="8.8758795"
     inkscape:cy="5.8382606"
     inkscape:window-width="1000"
     inkscape:window-height="780"
     inkscape:window-x="886"
     inkscape:window-y="170"
     inkscape:window-maximized="0"
     inkscape:current-layer="svg2" />
  <rect
     x="9.5"
     y="9.5"
     width="6"
     height="6"
     rx="1.5"
     fill="#E7EFFD"
     stroke="#3574F0"
     id="rect1"
     style="fill:#faf5ff;fill-opacity:1;stroke:#834df0;stroke-opacity:1" />
  <path
     fill-rule="evenodd"
     clip-rule="evenodd"
     d="M1 3.86667C1 2.83574 1.7835 2 2.75 2H6.03823C6.29871 2 6.5489 2.10163 6.73559 2.28327L8.5 4L13 4C14.1046 4 15 4.89543 15 6V8.17071C14.6872 8.06015 14.3506 8 14 8H11C9.34315 8 8 9.34315 8 11V14H2.75C1.7835 14 1 13.1643 1 12.1333V3.86667Z"
     fill="#EBECF0"
     id="path1" />
  <path
     fill-rule="evenodd"
     clip-rule="evenodd"
     d="M7.80265 4.71673L8.09379 5H8.5H13C13.5523 5 14 5.44772 14 6V8C14.3506 8 14.6872 8.06015 15 8.17071V6C15 4.89543 14.1046 4 13 4L8.5 4L6.73559 2.28327C6.5489 2.10163 6.29871 2 6.03823 2H2.75C1.7835 2 1 2.83574 1 3.86667V12.1333C1 13.1643 1.7835 14 2.75 14H8V13H2.75C2.3956 13 2 12.6738 2 12.1333V3.86667C2 3.32624 2.3956 3 2.75 3H6.03823L7.80265 4.71673Z"
     fill="#6C707E"
     id="path2" />
</svg>
